<svg xmlns="http://www.w3.org/2000/svg" xmlns:xlink="http://www.w3.org/1999/xlink" width="512" zoomAndPan="magnify" viewBox="0 0 384 383.999986" height="512" preserveAspectRatio="xMidYMid meet" version="1.0"><defs><clipPath id="0f9f752a3a"><path d="M 91 6.628906 L 350.792969 6.628906 L 350.792969 377.128906 L 91 377.128906 Z M 91 6.628906 " clip-rule="nonzero"/></clipPath><clipPath id="3fde818508"><path d="M 0.542969 6.628906 L 134 6.628906 L 134 333 L 0.542969 333 Z M 0.542969 6.628906 " clip-rule="nonzero"/></clipPath><clipPath id="87c323a225"><path d="M 348.839844 204.898438 L 383.457031 204.898438 L 383.457031 239.515625 L 348.839844 239.515625 Z M 348.839844 204.898438 " clip-rule="nonzero"/></clipPath><clipPath id="08009fbd92"><path d="M 366.148438 204.898438 C 356.585938 204.898438 348.839844 212.644531 348.839844 222.207031 C 348.839844 231.765625 356.585938 239.515625 366.148438 239.515625 C 375.707031 239.515625 383.457031 231.765625 383.457031 222.207031 C 383.457031 212.644531 375.707031 204.898438 366.148438 204.898438 Z M 366.148438 204.898438 " clip-rule="nonzero"/></clipPath><clipPath id="1735c2e51e"><path d="M 0.839844 0.898438 L 35.457031 0.898438 L 35.457031 35.515625 L 0.839844 35.515625 Z M 0.839844 0.898438 " clip-rule="nonzero"/></clipPath><clipPath id="856341a144"><path d="M 18.148438 0.898438 C 8.585938 0.898438 0.839844 8.644531 0.839844 18.207031 C 0.839844 27.765625 8.585938 35.515625 18.148438 35.515625 C 27.707031 35.515625 35.457031 27.765625 35.457031 18.207031 C 35.457031 8.644531 27.707031 0.898438 18.148438 0.898438 Z M 18.148438 0.898438 " clip-rule="nonzero"/></clipPath><clipPath id="f6ba9f7c99"><rect x="0" width="36" y="0" height="36"/></clipPath><clipPath id="2ebc4334bc"><path d="M 331.527344 256.488281 L 366.148438 256.488281 L 366.148438 291.105469 L 331.527344 291.105469 Z M 331.527344 256.488281 " clip-rule="nonzero"/></clipPath><clipPath id="46c0636c2e"><path d="M 348.839844 256.488281 C 339.277344 256.488281 331.527344 264.234375 331.527344 273.796875 C 331.527344 283.355469 339.277344 291.105469 348.839844 291.105469 C 358.398438 291.105469 366.148438 283.355469 366.148438 273.796875 C 366.148438 264.234375 358.398438 256.488281 348.839844 256.488281 Z M 348.839844 256.488281 " clip-rule="nonzero"/></clipPath><clipPath id="82400d4abe"><path d="M 0.527344 0.488281 L 35.148438 0.488281 L 35.148438 35.105469 L 0.527344 35.105469 Z M 0.527344 0.488281 " clip-rule="nonzero"/></clipPath><clipPath id="553f152bec"><path d="M 17.839844 0.488281 C 8.277344 0.488281 0.527344 8.234375 0.527344 17.796875 C 0.527344 27.355469 8.277344 35.105469 17.839844 35.105469 C 27.398438 35.105469 35.148438 27.355469 35.148438 17.796875 C 35.148438 8.234375 27.398438 0.488281 17.839844 0.488281 Z M 17.839844 0.488281 " clip-rule="nonzero"/></clipPath><clipPath id="f34dd259bb"><rect x="0" width="36" y="0" height="36"/></clipPath></defs><g clip-path="url(#0f9f752a3a)"><path fill="#000000" d="M 350.515625 216.386719 L 307.890625 216.386719 L 308.542969 179.144531 L 237.976562 179.144531 L 237.976562 160.84375 L 333.363281 160.84375 L 333.363281 132.742188 L 237.976562 131.765625 L 237.976562 112.488281 L 315.726562 112.488281 L 315.726562 84.386719 L 237.976562 84.386719 L 237.976562 64.785156 L 315.726562 64.785156 L 315.726562 36.683594 L 237.976562 36.683594 L 237.976562 6.628906 L 208.578125 6.628906 L 208.578125 36.683594 L 144.546875 36.683594 L 144.546875 64.785156 L 208.578125 64.785156 L 208.578125 84.386719 L 144.546875 84.386719 L 144.546875 112.488281 L 208.578125 112.488281 L 208.578125 131.765625 L 126.246094 132.09375 L 126.898438 160.84375 L 214.449219 160.84375 L 214.449219 179.144531 L 143.882812 179.144531 L 143.882812 326.492188 L 91.617188 377.140625 L 121.992188 377.140625 L 168.703125 332.375 L 168.703125 275.195312 L 285 275.847656 L 285 306.554688 L 220.96875 306.878906 L 220.96875 330.726562 L 284.351562 330.726562 L 284.351562 352.945312 L 252.335938 352.945312 C 252.863281 353.574219 252.335938 354.179688 252.335938 354.582031 L 252.335938 377.128906 L 308.519531 376.476562 L 308.519531 228.804688 L 350.492188 228.804688 L 350.492188 216.386719 Z M 285.023438 252.976562 L 168.726562 252.976562 L 168.726562 228.804688 L 285.023438 228.804688 Z M 285.023438 217.039062 L 168.726562 217.039062 L 168.726562 201.980469 L 285.023438 201.980469 Z M 285.023438 217.039062 " fill-opacity="1" fill-rule="nonzero"/></g><g clip-path="url(#3fde818508)"><path fill="#000000" d="M 99.472656 6.628906 L 99.472656 71.320312 L 113.84375 71.320312 L 133.433594 124.246094 C 125.945312 122.886719 118.175781 125.222656 110.542969 123.917969 L 99.460938 98.757812 C 97.128906 98.367188 98.8125 99.085938 98.8125 99.734375 L 98.8125 332.691406 L 69.410156 332.691406 L 70.0625 92.875 C 61.699219 100.230469 53.582031 108.03125 45.558594 115.722656 C 38.574219 122.425781 41.144531 121.066406 41.359375 129.757812 C 42.132812 162.5625 40.605469 195.378906 40.671875 228.128906 L 16.503906 228.128906 L 16.503906 144.488281 L 0.824219 158.859375 L 0.824219 121.28125 L 55.378906 68.039062 L 70.085938 84.363281 L 70.085938 6.628906 L 99.484375 6.628906 Z M 99.472656 6.628906 " fill-opacity="1" fill-rule="nonzero"/></g><g clip-path="url(#87c323a225)"><g clip-path="url(#08009fbd92)"><g transform="matrix(1, 0, 0, 1, 348, 204)"><g clip-path="url(#f6ba9f7c99)"><g clip-path="url(#1735c2e51e)"><g clip-path="url(#856341a144)"><path fill="#d3381c" d="M 0.839844 0.898438 L 35.457031 0.898438 L 35.457031 35.515625 L 0.839844 35.515625 Z M 0.839844 0.898438 " fill-opacity="1" fill-rule="nonzero"/></g></g></g></g></g></g><g clip-path="url(#2ebc4334bc)"><g clip-path="url(#46c0636c2e)"><g transform="matrix(1, 0, 0, 1, 331, 256)"><g clip-path="url(#f34dd259bb)"><g clip-path="url(#82400d4abe)"><g clip-path="url(#553f152bec)"><path fill="#d3381c" d="M 0.527344 0.484375 L 35.148438 0.484375 L 35.148438 35.105469 L 0.527344 35.105469 Z M 0.527344 0.484375 " fill-opacity="1" fill-rule="nonzero"/></g></g></g></g></g></g></svg>